HIERARCHY
ROOT Hips
{
	OFFSET -0.001795 -0.223333 0.028219
	CHANNELS 6 Xposition Yposition Zposition Zrotation Yrotation Xrotation 
	JOINT LeftUpLeg
	{
		OFFSET 0.069520 -0.091406 -0.006815
		CHANNELS 3 Zrotation Yrotation Xrotation
		JOINT LeftLeg
		{
			OFFSET 0.034277 -0.375199 -0.004496
			CHANNELS 3 Zrotation Yrotation Xrotation
			JOINT LeftFoot
			{
				OFFSET -0.013596 -0.397961 -0.043693
				CHANNELS 3 Zrotation Yrotation Xrotation
				JOINT LeftToe
				{
					OFFSET 0.026358 -0.055791 0.119288
					CHANNELS 3 Zrotation Yrotation Xrotation
					End Site
					{
						OFFSET 0.000000 0.000000 0.000000
					}
				}
			}
		}
	}
	JOINT RightUpLeg
	{
		OFFSET -0.067670 -0.090522 -0.004320
		CHANNELS 3 Zrotation Yrotation Xrotation
		JOINT RightLeg
		{
			OFFSET -0.038290 -0.382569 -0.008850
			CHANNELS 3 Zrotation Yrotation Xrotation
			JOINT RightFoot
			{
				OFFSET 0.015774 -0.398415 -0.042312
				CHANNELS 3 Zrotation Yrotation Xrotation
				JOINT RightToe
				{
					OFFSET -0.025372 -0.048144 0.123348
					CHANNELS 3 Zrotation Yrotation Xrotation
					End Site
					{
						OFFSET 0.000000 0.000000 0.000000
					}
				}
			}
		}
	}
	JOINT Spine
	{
		OFFSET -0.002533 0.108963 -0.026696
		CHANNELS 3 Zrotation Yrotation Xrotation
		JOINT Spine1
		{
			OFFSET 0.005487 0.135180 0.001092
			CHANNELS 3 Zrotation Yrotation Xrotation
			JOINT Spine2
			{
				OFFSET 0.001457 0.052922 0.025425
				CHANNELS 3 Zrotation Yrotation Xrotation
				JOINT Neck
				{
					OFFSET -0.002778 0.213870 -0.042857
					CHANNELS 3 Zrotation Yrotation Xrotation
					JOINT Head
					{
						OFFSET 0.005152 0.064970 0.051349
						CHANNELS 3 Zrotation Yrotation Xrotation
						End Site
						{
							OFFSET 0.000000 0.000000 0.000000
						}
					}
				}
				JOINT LeftShoulder
				{
					OFFSET 0.078845 0.121749 -0.034090
					CHANNELS 3 Zrotation Yrotation Xrotation
					JOINT LeftArm
					{
						OFFSET 0.090977 0.030469 -0.008868
						CHANNELS 3 Zrotation Yrotation Xrotation
						JOINT LeftForeArm
						{
							OFFSET 0.259612 -0.012772 -0.027456
							CHANNELS 3 Zrotation Yrotation Xrotation
							JOINT LeftHand
							{
								OFFSET 0.249234 0.008986 -0.001171
								CHANNELS 3 Zrotation Yrotation Xrotation
								End Site
								{
									OFFSET 0.000000 0.000000 0.000000
								}
							}
						}
					}
				}
				JOINT RightShoulder
				{
					OFFSET -0.081759 0.118833 -0.038615
					CHANNELS 3 Zrotation Yrotation Xrotation
					JOINT RightArm
					{
						OFFSET -0.096012 0.032551 -0.009143
						CHANNELS 3 Zrotation Yrotation Xrotation
						JOINT RightForeArm
						{
							OFFSET -0.253742 -0.013329 -0.021401
							CHANNELS 3 Zrotation Yrotation Xrotation
							JOINT RightHand
							{
								OFFSET -0.255298 0.007772 -0.005559
								CHANNELS 3 Zrotation Yrotation Xrotation
								End Site
								{
									OFFSET 0.000000 0.000000 0.000000
								}
							}
						}
					}
				}
			}
		}
	}
}
MOTION
Frames: 15
Frame Time: 0.050000
0.000000 0.949892 0.000000 -1.884285 22.313792 5.242168 6.202469 -0.474942 0.430027 -5.694448 0.145580 -4.891948 10.245864 20.471680 9.559231 0.000000 0.000000 0.000000 -3.969917 0.508844 -12.323288 2.914106 -0.575874 6.651113 -6.299016 -14.039272 12.626779 0.000000 0.000000 0.000000 1.169016 -0.477162 7.099871 3.662316 0.126517 -24.798075 -2.638169 -11.634593 27.627813 -0.736631 2.401526 -28.914857 0.000000 0.000000 0.000000 -17.417027 -10.852087 4.049240 -50.093831 -28.682911 3.764186 -35.698182 -60.747801 25.152582 0.000000 0.000000 0.000000 9.160762 7.877324 3.526130 56.859592 13.240174 -1.586980 22.526711 51.593903 14.646849 0.000000 0.000000 0.000000 
0.003000 0.950086 0.001226 -2.304511 21.576442 5.526178 5.448858 -0.390549 0.935705 -3.727358 0.118464 -6.552412 11.094631 21.914408 12.093243 0.000000 0.000000 0.000000 -4.097698 0.509917 -12.174546 3.393145 -0.643578 5.907857 -5.942581 -13.388275 13.121761 0.000000 0.000000 0.000000 1.070491 -0.383220 5.959416 3.747913 0.089747 -25.533288 -2.815569 -12.720969 28.976903 -0.682450 2.214951 -30.269619 0.000000 0.000000 0.000000 -17.258756 -7.531529 2.697218 -52.001199 -24.707798 2.066411 -43.903481 -58.449151 29.728119 0.000000 0.000000 0.000000 7.691482 6.642282 2.746027 58.501188 10.783489 -2.894676 25.016962 48.945175 14.797348 0.000000 0.000000 0.000000 
0.005210 0.950212 0.003064 -2.337000 20.631019 5.240994 5.138491 -0.334816 1.349054 -3.150760 0.144073 -6.267855 12.413410 23.638943 13.020066 0.000000 0.000000 0.000000 -4.431599 0.488569 -12.552818 3.496810 -0.717884 7.823882 -5.031488 -11.769952 13.539776 0.000000 0.000000 0.000000 1.137689 -0.399662 6.178247 3.830134 0.063758 -25.793143 -3.573434 -11.742207 29.231431 -0.389263 2.030775 -28.548264 0.000000 0.000000 0.000000 -18.195852 -5.093802 1.314212 -52.669339 -19.734519 -0.156220 -46.346382 -54.121360 28.612959 0.000000 0.000000 0.000000 9.351711 3.658352 1.520158 58.882815 6.839895 -4.894723 26.217060 46.775486 14.672449 0.000000 0.000000 0.000000 
0.006670 0.949646 0.005434 -2.444155 19.754732 5.494543 4.626721 -0.269608 1.729337 -2.692126 0.160797 -5.839484 14.130614 25.677350 12.271805 0.000000 0.000000 0.000000 -4.506577 0.499646 -12.126576 3.709182 -0.709766 6.845901 -3.773711 -9.522407 13.399645 0.000000 0.000000 0.000000 0.676017 -0.319444 5.538411 4.164172 -0.027674 -26.136928 -3.682136 -12.617906 29.755766 0.052114 1.507290 -27.822400 0.000000 0.000000 0.000000 -18.595520 -1.522573 -0.255888 -53.228384 -14.138315 -2.722407 -48.113794 -48.872690 26.902464 0.000000 0.000000 0.000000 8.185816 1.981400 0.597508 59.531675 4.295487 -6.267604 27.515988 44.931016 14.332888 0.000000 0.000000 0.000000 
0.006980 0.949628 0.007876 -2.794457 19.113312 5.273012 4.658112 -0.253293 2.163176 -2.462027 0.169309 -5.528507 14.269796 25.860503 12.278347 0.000000 0.000000 0.000000 -3.948201 0.577269 -11.804691 3.283993 -0.594958 6.546728 -3.912098 -9.882018 14.086675 0.000000 0.000000 0.000000 0.584104 -0.317285 5.624139 4.452391 -0.097385 -26.338520 -4.125467 -13.056486 29.836757 0.891134 0.829498 -27.033810 0.000000 0.000000 0.000000 -18.334095 0.747316 -1.231637 -53.619180 -9.318763 -4.919370 -46.730521 -44.997770 24.142649 0.000000 0.000000 0.000000 8.176112 -0.347764 -0.537452 59.849423 1.918993 -7.522825 27.893753 44.048836 14.028677 0.000000 0.000000 0.000000 
0.006827 0.949630 0.009508 -3.133021 17.871660 4.972292 4.754013 -0.222393 3.124093 -2.492343 0.178367 -6.196150 14.860261 26.617375 12.447921 0.000000 0.000000 0.000000 -3.512327 0.642434 -11.484922 2.885173 -0.474792 5.930012 -3.066206 -8.474607 13.899481 0.000000 0.000000 0.000000 0.167795 -0.245054 4.962673 4.853547 -0.212087 -25.865859 -4.267501 -13.205698 30.556246 1.209814 0.433046 -26.443008 0.000000 0.000000 0.000000 -17.237197 2.034410 -1.593463 -53.675627 -5.481197 -6.688930 -45.570569 -43.891370 23.174549 0.000000 0.000000 0.000000 7.666593 -1.463165 -1.087330 60.861828 1.142462 -8.173657 26.987043 43.013329 13.153863 0.000000 0.000000 0.000000 
0.006386 0.949649 0.009685 -3.379658 16.797899 4.739982 5.011230 -0.222711 3.551009 -2.768858 0.192858 -6.210582 15.697440 27.658084 13.541613 0.000000 0.000000 0.000000 -3.028084 0.730002 -11.844932 2.592165 -0.410807 6.698754 -2.570880 -7.664533 13.403528 0.000000 0.000000 0.000000 0.173389 -0.245604 4.982419 4.984107 -0.258827 -25.829020 -4.697579 -13.403587 30.648942 2.080520 -0.226310 -26.492762 0.000000 0.000000 0.000000 -16.847035 2.931405 -1.835046 -53.609563 -3.149102 -7.697821 -42.487375 -42.441137 21.055623 0.000000 0.000000 0.000000 7.574848 -2.198977 -1.501704 61.160810 1.078697 -8.319639 25.872642 41.885298 12.134300 0.000000 0.000000 0.000000 
0.006071 0.949694 0.008267 -3.799986 15.939294 4.318791 5.367534 -0.236822 3.884854 -2.979950 0.204154 -6.326092 16.726272 28.868674 14.480988 0.000000 0.000000 0.000000 -2.452111 0.820669 -12.135046 2.284536 -0.336334 6.911641 -2.379750 -7.366386 12.793727 0.000000 0.000000 0.000000 0.189207 -0.256678 5.172483 5.584851 -0.418283 -25.612807 -5.490092 -13.681240 31.066451 2.609742 -0.688295 -26.466106 0.000000 0.000000 0.000000 -17.084670 2.579619 -1.454940 -53.582484 -3.912745 -7.415768 -36.607691 -41.054867 17.808753 0.000000 0.000000 0.000000 6.942340 -1.996208 -1.436079 62.684933 2.153699 -8.072785 22.629250 40.595224 10.358889 0.000000 0.000000 0.000000 
0.005614 0.949794 0.005728 -4.009413 15.401367 4.210568 5.566261 -0.248400 3.810947 -3.206069 0.210051 -6.584100 17.649357 29.887450 15.661291 0.000000 0.000000 0.000000 -2.237018 0.874114 -12.566395 2.516494 -0.377820 7.090510 -2.360448 -7.418290 12.918172 0.000000 0.000000 0.000000 0.185296 -0.268430 5.388023 5.893666 -0.515877 -25.207480 -5.963899 -14.240729 30.698675 2.762546 -0.927548 -26.411034 0.000000 0.000000 0.000000 -17.274564 1.066672 -0.458057 -53.496455 -7.069180 -6.017103 -28.916727 -38.062598 13.348947 0.000000 0.000000 0.000000 7.193495 -0.951810 -1.112077 63.113790 4.246510 -7.064416 19.468266 38.436425 8.450999 0.000000 0.000000 0.000000 
0.004810 0.949838 0.003102 -4.269002 14.291235 4.174288 5.818260 -0.252907 3.853901 -3.653458 0.226203 -6.783512 18.854568 31.211080 16.758487 0.000000 0.000000 0.000000 -1.783915 0.973031 -13.111060 2.634863 -0.386243 7.356503 -2.136111 -7.126297 12.693359 0.000000 0.000000 0.000000 0.208851 -0.275174 5.496270 6.241337 -0.612204 -25.228683 -6.550917 -14.962854 30.769265 3.227471 -1.441877 -26.521720 0.000000 0.000000 0.000000 -17.881920 0.155816 0.363234 -52.420177 -10.092094 -4.700746 -24.333253 -35.737825 10.849410 0.000000 0.000000 0.000000 7.495804 0.404900 -0.723160 63.083521 6.242353 -6.145730 17.175548 36.303035 6.960287 0.000000 0.000000 0.000000 
0.003557 0.949744 0.000970 -4.425321 12.813857 4.085236 6.182191 -0.254585 4.129410 -4.080644 0.241516 -7.392491 19.517141 31.891882 18.023992 0.000000 0.000000 0.000000 -1.301840 1.055837 -13.196949 2.481095 -0.327142 7.128250 -1.915180 -6.969830 13.071869 0.000000 0.000000 0.000000 0.127337 -0.289980 5.904497 6.152263 -0.605099 -25.343851 -6.739713 -15.492582 30.838267 3.422646 -1.799726 -26.576958 0.000000 0.000000 0.000000 -17.910426 -0.805188 1.236817 -51.592977 -12.769629 -3.572704 -21.435120 -35.015635 9.657984 0.000000 0.000000 0.000000 7.186500 0.943685 -0.623166 63.299177 7.122383 -5.865207 18.059450 36.037303 6.992486 0.000000 0.000000 0.000000 
0.001852 0.949939 -0.000336 -4.654699 11.111075 4.196545 6.506422 -0.249677 4.312308 -4.253157 0.261318 -7.845585 20.183394 32.608344 18.879580 0.000000 0.000000 0.000000 -0.844063 1.154952 -13.535509 2.480452 -0.299216 7.177189 -1.451550 -6.359746 13.156418 0.000000 0.000000 0.000000 0.146801 -0.293383 5.984022 6.105609 -0.594305 -25.786121 -7.103020 -16.115090 31.172107 4.020376 -2.458881 -26.493803 0.000000 0.000000 0.000000 -17.652277 -1.309324 1.896813 -50.999612 -14.424904 -2.902197 -20.075725 -35.100296 9.307203 0.000000 0.000000 0.000000 6.954926 1.296740 -0.633443 63.790205 8.109870 -5.606900 18.930413 36.300614 7.121483 0.000000 0.000000 0.000000 
0.000040 0.950126 -0.000991 -4.886110 9.520516 4.264760 6.930639 -0.253879 4.470584 -4.742728 0.288438 -8.033867 20.675388 33.166184 19.362312 0.000000 0.000000 0.000000 -0.198863 1.269808 -13.832064 2.034283 -0.187555 7.036158 -1.017202 -5.809871 13.318791 0.000000 0.000000 0.000000 -0.073586 -0.282960 6.147265 6.396529 -0.674712 -25.894150 -7.231040 -16.742860 30.975919 4.141482 -2.824439 -26.093057 0.000000 0.000000 0.000000 -17.566593 -1.396753 2.300365 -50.498905 -14.291154 -2.953300 -20.891763 -37.058242 10.340097 0.000000 0.000000 0.000000 6.581332 1.019384 -0.875258 64.211884 7.942514 -5.919817 21.464318 37.945409 8.082802 0.000000 0.000000 0.000000 
-0.001577 0.950509 -0.001286 -5.003713 8.002773 4.361580 7.208338 -0.241813 4.724973 -4.921134 0.316561 -8.078022 21.436305 33.930113 20.221848 0.000000 0.000000 0.000000 0.124974 1.363869 -14.307510 1.748600 -0.111546 7.148804 -0.621535 -5.286456 13.268798 0.000000 0.000000 0.000000 -0.318296 -0.272754 6.382701 6.765473 -0.740126 -26.414981 -7.705630 -17.539726 31.045980 4.325647 -3.215766 -26.161323 0.000000 0.000000 0.000000 -17.867278 -1.757082 2.930338 -49.790354 -15.183022 -2.654030 -20.598964 -37.832279 10.590668 0.000000 0.000000 0.000000 6.285067 1.337046 -0.882901 64.504329 8.027362 -6.139747 23.476012 39.284011 8.819027 0.000000 0.000000 0.000000 
-0.002627 0.950583 -0.001613 -5.111501 7.029640 4.442752 7.341523 -0.232375 4.642309 -5.093105 0.344479 -7.686251 21.689899 34.273265 20.201483 0.000000 0.000000 0.000000 0.150256 1.419498 -14.763826 1.683876 -0.085594 7.222261 -0.395005 -5.115526 13.695167 0.000000 0.000000 0.000000 -0.320389 -0.282314 6.628772 7.032042 -0.797797 -26.533064 -7.953731 -18.483077 30.897263 4.071254 -3.321910 -26.073067 0.000000 0.000000 0.000000 -18.189894 -2.421720 3.693296 -49.343010 -17.057459 -1.915064 -19.667766 -38.272344 10.442275 0.000000 0.000000 0.000000 6.034671 1.771350 -0.832096 64.965501 8.462019 -6.137307 23.773637 39.996980 8.836586 0.000000 0.000000 0.000000 
